<svg width="50" height="50" viewBox="0 0 50 50" fill="none" xmlns="http://www.w3.org/2000/svg">
<g clip-path="url(#clip0_346_557)">
<path fill-rule="evenodd" clip-rule="evenodd" d="M42.7139 7.2661C38.014 2.583 31.7636 0.0026322 25.1044 0C11.3834 0 0.216172 11.1138 0.210681 24.7746C0.20885 29.1413 1.35519 33.4038 3.53351 37.161L0.00195312 50L13.1985 46.5547C16.8344 48.5285 20.9281 49.5687 25.0945 49.5704H25.1047C38.8243 49.5704 49.9926 38.4552 49.9981 24.7944C50.0008 18.1742 47.4139 11.9492 42.7139 7.2661ZM25.1047 45.3858H25.0962C21.3836 45.3844 17.7421 44.3917 14.5654 42.5154L13.8098 42.0691L5.97892 44.1137L8.06918 36.5145L7.57716 35.7355C5.50602 32.4567 4.41208 28.6671 4.4137 24.7761C4.41825 13.4219 13.7001 4.18453 25.1129 4.18453C30.6393 4.18662 35.8343 6.33146 39.7407 10.2239C43.6472 14.1163 45.7973 19.2903 45.7952 24.7927C45.7904 36.1478 36.5087 45.3858 25.1047 45.3858ZM36.4539 29.9629C35.8318 29.653 32.7738 28.1553 32.2036 27.9487C31.6335 27.7421 31.2189 27.6388 30.8041 28.2586C30.3895 28.8783 29.1975 30.2728 28.8346 30.6859C28.4718 31.0991 28.109 31.1508 27.4869 30.8409C26.865 30.531 24.8608 29.8773 22.4849 27.7682C20.636 26.1268 19.3875 24.0993 19.0247 23.4796C18.6619 22.8598 18.9861 22.5247 19.2975 22.2161C19.5773 21.9387 19.9195 21.4931 20.2305 21.1315C20.5414 20.77 20.6451 20.5118 20.8524 20.0987C21.0598 19.6855 20.9561 19.324 20.8006 19.0141C20.6451 18.7042 19.4012 15.6571 18.8828 14.4176C18.378 13.2104 17.8651 13.3738 17.4833 13.3549C17.1209 13.3369 16.7059 13.3331 16.2912 13.3331C15.8766 13.3331 15.2027 13.488 14.6325 14.1077C14.0624 14.7275 12.4556 16.2252 12.4556 19.2723C12.4556 22.3194 14.6844 25.2632 14.9954 25.6763C15.3064 26.0895 19.3814 32.3426 25.621 35.0242C27.105 35.662 28.2636 36.0428 29.1669 36.3283C30.657 36.7994 32.013 36.7329 33.0848 36.5735C34.2798 36.3958 36.7648 35.0759 37.2832 33.6298C37.8015 32.1837 37.8015 30.9442 37.646 30.686C37.4905 30.4277 37.0759 30.2728 36.4539 29.9629Z" fill="black"/>
</g>
<defs>
<clipPath id="clip0_346_557">
<rect width="50" height="50" fill="white"/>
</clipPath>
</defs>
</svg>
